<mxfile host="app.diagrams.net" agent="Mozilla/5.0 (Windows NT 10.0; Win64; x64) AppleWebKit/537.36 (KHTML, like Gecko) Chrome/130.0.0.0 Safari/537.36" version="25.0.3">
  <diagram name="Page-1" id="WRlgL8Rsu9BcMeLaTDrW">
    <mxGraphModel dx="2716" dy="549" grid="1" gridSize="10" guides="1" tooltips="1" connect="1" arrows="1" fold="1" page="1" pageScale="1" pageWidth="850" pageHeight="1100" math="0" shadow="0">
      <root>
        <mxCell id="0" />
        <mxCell id="1" parent="0" />
        <mxCell id="y3EWq9oGj_fFSSO3Vtz_-1" style="rounded=0;orthogonalLoop=1;jettySize=auto;html=1;entryX=0;entryY=0.5;entryDx=0;entryDy=0;" edge="1" parent="1" source="y3EWq9oGj_fFSSO3Vtz_-5" target="y3EWq9oGj_fFSSO3Vtz_-6">
          <mxGeometry relative="1" as="geometry" />
        </mxCell>
        <mxCell id="y3EWq9oGj_fFSSO3Vtz_-2" style="rounded=0;orthogonalLoop=1;jettySize=auto;html=1;entryX=0;entryY=0.5;entryDx=0;entryDy=0;" edge="1" parent="1" source="y3EWq9oGj_fFSSO3Vtz_-5" target="y3EWq9oGj_fFSSO3Vtz_-7">
          <mxGeometry relative="1" as="geometry" />
        </mxCell>
        <mxCell id="y3EWq9oGj_fFSSO3Vtz_-3" style="rounded=0;orthogonalLoop=1;jettySize=auto;html=1;entryX=0;entryY=0.5;entryDx=0;entryDy=0;" edge="1" parent="1" source="y3EWq9oGj_fFSSO3Vtz_-5" target="y3EWq9oGj_fFSSO3Vtz_-8">
          <mxGeometry relative="1" as="geometry" />
        </mxCell>
        <mxCell id="y3EWq9oGj_fFSSO3Vtz_-4" style="rounded=0;orthogonalLoop=1;jettySize=auto;html=1;entryX=0;entryY=0.5;entryDx=0;entryDy=0;" edge="1" parent="1" source="y3EWq9oGj_fFSSO3Vtz_-5" target="y3EWq9oGj_fFSSO3Vtz_-9">
          <mxGeometry relative="1" as="geometry" />
        </mxCell>
        <mxCell id="y3EWq9oGj_fFSSO3Vtz_-5" value="Sales Manager" style="shape=umlActor;verticalLabelPosition=bottom;verticalAlign=top;html=1;outlineConnect=0;" vertex="1" parent="1">
          <mxGeometry x="30" y="250" width="30" height="60" as="geometry" />
        </mxCell>
        <mxCell id="y3EWq9oGj_fFSSO3Vtz_-6" value="View items list and stock level" style="ellipse;whiteSpace=wrap;html=1;" vertex="1" parent="1">
          <mxGeometry x="210" y="100" width="120" height="80" as="geometry" />
        </mxCell>
        <mxCell id="y3EWq9oGj_fFSSO3Vtz_-7" value="Create daily item-wise sales entries" style="ellipse;whiteSpace=wrap;html=1;" vertex="1" parent="1">
          <mxGeometry x="210" y="190" width="120" height="80" as="geometry" />
        </mxCell>
        <mxCell id="y3EWq9oGj_fFSSO3Vtz_-8" value="Create item requisition" style="ellipse;whiteSpace=wrap;html=1;" vertex="1" parent="1">
          <mxGeometry x="210" y="280" width="120" height="80" as="geometry" />
        </mxCell>
        <mxCell id="y3EWq9oGj_fFSSO3Vtz_-9" value="View purchase orders" style="ellipse;whiteSpace=wrap;html=1;" vertex="1" parent="1">
          <mxGeometry x="210" y="370" width="120" height="80" as="geometry" />
        </mxCell>
        <mxCell id="y3EWq9oGj_fFSSO3Vtz_-10" style="rounded=0;orthogonalLoop=1;jettySize=auto;html=1;entryX=0;entryY=0.5;entryDx=0;entryDy=0;" edge="1" parent="1" source="y3EWq9oGj_fFSSO3Vtz_-14" target="y3EWq9oGj_fFSSO3Vtz_-15">
          <mxGeometry relative="1" as="geometry" />
        </mxCell>
        <mxCell id="y3EWq9oGj_fFSSO3Vtz_-11" style="rounded=0;orthogonalLoop=1;jettySize=auto;html=1;entryX=0;entryY=0.5;entryDx=0;entryDy=0;" edge="1" parent="1" source="y3EWq9oGj_fFSSO3Vtz_-14" target="y3EWq9oGj_fFSSO3Vtz_-16">
          <mxGeometry relative="1" as="geometry" />
        </mxCell>
        <mxCell id="y3EWq9oGj_fFSSO3Vtz_-12" style="rounded=0;orthogonalLoop=1;jettySize=auto;html=1;entryX=0;entryY=0.5;entryDx=0;entryDy=0;" edge="1" parent="1" source="y3EWq9oGj_fFSSO3Vtz_-14" target="y3EWq9oGj_fFSSO3Vtz_-18">
          <mxGeometry relative="1" as="geometry" />
        </mxCell>
        <mxCell id="y3EWq9oGj_fFSSO3Vtz_-13" style="rounded=0;orthogonalLoop=1;jettySize=auto;html=1;entryX=0;entryY=0.5;entryDx=0;entryDy=0;" edge="1" parent="1" source="y3EWq9oGj_fFSSO3Vtz_-14" target="y3EWq9oGj_fFSSO3Vtz_-19">
          <mxGeometry relative="1" as="geometry" />
        </mxCell>
        <mxCell id="y3EWq9oGj_fFSSO3Vtz_-14" value="Purchase Manager" style="shape=umlActor;verticalLabelPosition=bottom;verticalAlign=top;html=1;outlineConnect=0;" vertex="1" parent="1">
          <mxGeometry x="-1630" y="350" width="30" height="60" as="geometry" />
        </mxCell>
        <mxCell id="y3EWq9oGj_fFSSO3Vtz_-15" value="View Supplier List" style="ellipse;whiteSpace=wrap;html=1;" vertex="1" parent="1">
          <mxGeometry x="-1450" y="200" width="120" height="80" as="geometry" />
        </mxCell>
        <mxCell id="y3EWq9oGj_fFSSO3Vtz_-16" value="View Requisition" style="ellipse;whiteSpace=wrap;html=1;" vertex="1" parent="1">
          <mxGeometry x="-1450" y="290" width="120" height="80" as="geometry" />
        </mxCell>
        <mxCell id="y3EWq9oGj_fFSSO3Vtz_-17" style="edgeStyle=orthogonalEdgeStyle;rounded=0;orthogonalLoop=1;jettySize=auto;html=1;entryX=0;entryY=0.5;entryDx=0;entryDy=0;" edge="1" parent="1" source="y3EWq9oGj_fFSSO3Vtz_-18" target="y3EWq9oGj_fFSSO3Vtz_-29">
          <mxGeometry relative="1" as="geometry" />
        </mxCell>
        <mxCell id="y3EWq9oGj_fFSSO3Vtz_-18" value="Create Purchase Order" style="ellipse;whiteSpace=wrap;html=1;" vertex="1" parent="1">
          <mxGeometry x="-1450" y="390" width="120" height="70" as="geometry" />
        </mxCell>
        <mxCell id="y3EWq9oGj_fFSSO3Vtz_-19" value="View Edit Delete Order List" style="ellipse;whiteSpace=wrap;html=1;" vertex="1" parent="1">
          <mxGeometry x="-1450" y="470" width="120" height="80" as="geometry" />
        </mxCell>
        <mxCell id="y3EWq9oGj_fFSSO3Vtz_-20" style="rounded=0;orthogonalLoop=1;jettySize=auto;html=1;entryX=1;entryY=0.5;entryDx=0;entryDy=0;" edge="1" parent="1" source="y3EWq9oGj_fFSSO3Vtz_-24" target="y3EWq9oGj_fFSSO3Vtz_-25">
          <mxGeometry relative="1" as="geometry" />
        </mxCell>
        <mxCell id="y3EWq9oGj_fFSSO3Vtz_-21" style="rounded=0;orthogonalLoop=1;jettySize=auto;html=1;entryX=1;entryY=0.5;entryDx=0;entryDy=0;" edge="1" parent="1" source="y3EWq9oGj_fFSSO3Vtz_-24" target="y3EWq9oGj_fFSSO3Vtz_-26">
          <mxGeometry relative="1" as="geometry" />
        </mxCell>
        <mxCell id="y3EWq9oGj_fFSSO3Vtz_-22" style="rounded=0;orthogonalLoop=1;jettySize=auto;html=1;entryX=1;entryY=0.5;entryDx=0;entryDy=0;" edge="1" parent="1" source="y3EWq9oGj_fFSSO3Vtz_-24" target="y3EWq9oGj_fFSSO3Vtz_-28">
          <mxGeometry relative="1" as="geometry" />
        </mxCell>
        <mxCell id="y3EWq9oGj_fFSSO3Vtz_-23" style="rounded=0;orthogonalLoop=1;jettySize=auto;html=1;entryX=1;entryY=0.5;entryDx=0;entryDy=0;" edge="1" parent="1" source="y3EWq9oGj_fFSSO3Vtz_-24" target="y3EWq9oGj_fFSSO3Vtz_-29">
          <mxGeometry relative="1" as="geometry" />
        </mxCell>
        <mxCell id="y3EWq9oGj_fFSSO3Vtz_-24" value="Sales Manager" style="shape=umlActor;verticalLabelPosition=bottom;verticalAlign=top;html=1;outlineConnect=0;" vertex="1" parent="1">
          <mxGeometry x="-910" y="280" width="30" height="60" as="geometry" />
        </mxCell>
        <mxCell id="y3EWq9oGj_fFSSO3Vtz_-25" value="View items list and stock level" style="ellipse;whiteSpace=wrap;html=1;" vertex="1" parent="1">
          <mxGeometry x="-1140" y="120" width="120" height="80" as="geometry" />
        </mxCell>
        <mxCell id="y3EWq9oGj_fFSSO3Vtz_-26" value="Create daily item-wise sales entries" style="ellipse;whiteSpace=wrap;html=1;" vertex="1" parent="1">
          <mxGeometry x="-1140" y="210" width="120" height="80" as="geometry" />
        </mxCell>
        <mxCell id="y3EWq9oGj_fFSSO3Vtz_-27" style="edgeStyle=orthogonalEdgeStyle;rounded=0;orthogonalLoop=1;jettySize=auto;html=1;entryX=1;entryY=0.5;entryDx=0;entryDy=0;" edge="1" parent="1" source="y3EWq9oGj_fFSSO3Vtz_-28" target="y3EWq9oGj_fFSSO3Vtz_-16">
          <mxGeometry relative="1" as="geometry" />
        </mxCell>
        <mxCell id="y3EWq9oGj_fFSSO3Vtz_-28" value="Create item requisition" style="ellipse;whiteSpace=wrap;html=1;" vertex="1" parent="1">
          <mxGeometry x="-1140" y="300" width="120" height="80" as="geometry" />
        </mxCell>
        <mxCell id="y3EWq9oGj_fFSSO3Vtz_-29" value="View purchase orders" style="ellipse;whiteSpace=wrap;html=1;" vertex="1" parent="1">
          <mxGeometry x="-1140" y="390" width="120" height="80" as="geometry" />
        </mxCell>
        <mxCell id="y3EWq9oGj_fFSSO3Vtz_-30" value="&amp;lt;&amp;lt;include&amp;gt;&amp;gt;" style="text;html=1;align=center;verticalAlign=middle;resizable=0;points=[];autosize=1;strokeColor=none;fillColor=none;" vertex="1" parent="1">
          <mxGeometry x="-1250" y="310" width="90" height="30" as="geometry" />
        </mxCell>
        <mxCell id="y3EWq9oGj_fFSSO3Vtz_-31" value="&amp;lt;&amp;lt;include&amp;gt;&amp;gt;" style="text;html=1;align=center;verticalAlign=middle;resizable=0;points=[];autosize=1;strokeColor=none;fillColor=none;" vertex="1" parent="1">
          <mxGeometry x="-1240" y="400" width="90" height="30" as="geometry" />
        </mxCell>
      </root>
    </mxGraphModel>
  </diagram>
</mxfile>
